<mxfile host="Electron" agent="Mozilla/5.0 (Windows NT 10.0; Win64; x64) AppleWebKit/537.36 (KHTML, like Gecko) draw.io/26.2.2 Chrome/134.0.6998.178 Electron/35.1.2 Safari/537.36" version="26.2.2">
  <diagram id="homestay_level1_dfd" name="民宿模块Level1数据流图">
    <mxGraphModel dx="1585" dy="940" grid="1" gridSize="10" guides="1" tooltips="1" connect="1" arrows="1" fold="1" page="1" pageScale="1" pageWidth="1169" pageHeight="827" math="0" shadow="0">
      <root>
        <mxCell id="0" />
        <mxCell id="1" parent="0" />
        <mxCell id="entity-user" value="普通用户" style="shape=rectangle;rounded=1;whiteSpace=wrap;html=1;fontSize=14;fontStyle=1;fillColor=#dae8fc;strokeColor=#6c8ebf;" parent="1" vertex="1">
          <mxGeometry x="40" y="150" width="120" height="60" as="geometry" />
        </mxCell>
        <mxCell id="entity-host" value="房东" style="shape=rectangle;rounded=1;whiteSpace=wrap;html=1;fontSize=14;fontStyle=1;fillColor=#dae8fc;strokeColor=#6c8ebf;" parent="1" vertex="1">
          <mxGeometry x="40" y="450" width="120" height="60" as="geometry" />
        </mxCell>
        <mxCell id="entity-admin" value="系统管理员" style="shape=rectangle;rounded=1;whiteSpace=wrap;html=1;fontSize=14;fontStyle=1;fillColor=#dae8fc;strokeColor=#6c8ebf;" parent="1" vertex="1">
          <mxGeometry x="40" y="680" width="120" height="60" as="geometry" />
        </mxCell>
        <mxCell id="entity-order" value="订单模块" style="shape=rectangle;rounded=1;whiteSpace=wrap;html=1;fontSize=14;fontStyle=1;fillColor=#dae8fc;strokeColor=#6c8ebf;" parent="1" vertex="1">
          <mxGeometry x="940" y="365" width="120" height="60" as="geometry" />
        </mxCell>
        <mxCell id="process-browse" value="1.0&#xa;浏览/搜索房源" style="ellipse;whiteSpace=wrap;html=1;aspect=fixed;fontSize=14;fillColor=#f8cecc;strokeColor=#b85450;" parent="1" vertex="1">
          <mxGeometry x="340" y="130" width="120" height="120" as="geometry" />
        </mxCell>
        <mxCell id="process-detail" value="2.0&#xa;查看房源详情" style="ellipse;whiteSpace=wrap;html=1;aspect=fixed;fontSize=14;fillColor=#f8cecc;strokeColor=#b85450;" parent="1" vertex="1">
          <mxGeometry x="600" y="130" width="120" height="120" as="geometry" />
        </mxCell>
        <mxCell id="process-host-manage" value="3.0&#xa;房东房源管理" style="ellipse;whiteSpace=wrap;html=1;aspect=fixed;fontSize=14;fillColor=#f8cecc;strokeColor=#b85450;" parent="1" vertex="1">
          <mxGeometry x="340" y="420" width="120" height="120" as="geometry" />
        </mxCell>
        <mxCell id="process-image" value="4.0&#xa;图片处理" style="ellipse;whiteSpace=wrap;html=1;aspect=fixed;fontSize=14;fillColor=#f8cecc;strokeColor=#b85450;" parent="1" vertex="1">
          <mxGeometry x="600" y="420" width="120" height="120" as="geometry" />
        </mxCell>
        <mxCell id="process-admin" value="5.0&#xa;管理员审核/配置" style="ellipse;whiteSpace=wrap;html=1;aspect=fixed;fontSize=14;fillColor=#f8cecc;strokeColor=#b85450;" parent="1" vertex="1">
          <mxGeometry x="340" y="650" width="120" height="120" as="geometry" />
        </mxCell>
        <mxCell id="process-availability" value="6.0&#xa;可用性/价格管理" style="ellipse;whiteSpace=wrap;html=1;aspect=fixed;fontSize=14;fillColor=#f8cecc;strokeColor=#b85450;" parent="1" vertex="1">
          <mxGeometry x="600" y="280" width="120" height="120" as="geometry" />
        </mxCell>
        <mxCell id="ds-homestays" value="D1 民宿/房源数据" style="shape=partialRectangle;whiteSpace=wrap;html=1;left=0;right=0;fontSize=14;fontStyle=1;fillColor=#fff2cc;strokeColor=#d6b656;" parent="1" vertex="1">
          <mxGeometry x="460" y="377.5" width="110" height="35" as="geometry" />
        </mxCell>
        <mxCell id="ds-types" value="D2 房源类型数据" style="shape=partialRectangle;whiteSpace=wrap;html=1;left=0;right=0;fontSize=14;fontStyle=1;fillColor=#fff2cc;strokeColor=#d6b656;" parent="1" vertex="1">
          <mxGeometry x="220" y="280" width="180" height="50" as="geometry" />
        </mxCell>
        <mxCell id="ds-amenities" value="D3 设施数据" style="shape=partialRectangle;whiteSpace=wrap;html=1;left=0;right=0;fontSize=14;fontStyle=1;fillColor=#fff2cc;strokeColor=#d6b656;" parent="1" vertex="1">
          <mxGeometry x="220" y="550" width="180" height="50" as="geometry" />
        </mxCell>
        <mxCell id="ds-images" value="D4 图片/文件数据" style="shape=partialRectangle;whiteSpace=wrap;html=1;left=0;right=0;fontSize=14;fontStyle=1;fillColor=#fff2cc;strokeColor=#d6b656;" parent="1" vertex="1">
          <mxGeometry x="730" y="550" width="180" height="50" as="geometry" />
        </mxCell>
        <mxCell id="ds-users" value="D5 用户数据" style="shape=partialRectangle;whiteSpace=wrap;html=1;left=0;right=0;fontSize=14;fontStyle=1;fillColor=#fff2cc;strokeColor=#d6b656;" parent="1" vertex="1">
          <mxGeometry x="720" y="680" width="180" height="50" as="geometry" />
        </mxCell>
        <mxCell id="flow-user-browse" value="浏览/搜索请求" style="endArrow=classic;html=1;rounded=0;fontSize=12;strokeWidth=1.5;exitX=1;exitY=0.632;exitDx=0;exitDy=0;exitPerimeter=0;" parent="1" source="entity-user" target="process-browse" edge="1">
          <mxGeometry relative="1" as="geometry" />
        </mxCell>
        <mxCell id="flow-browse-user" value="房源列表/搜索结果" style="endArrow=classic;html=1;rounded=0;fontSize=12;strokeWidth=1.5;" parent="1" source="process-browse" target="entity-user" edge="1">
          <mxGeometry relative="1" as="geometry">
            <Array as="points">
              <mxPoint x="400" y="120" />
              <mxPoint x="160" y="120" />
              <mxPoint x="160" y="160" />
            </Array>
          </mxGeometry>
        </mxCell>
        <mxCell id="flow-user-detail" value="详情查看请求" style="endArrow=classic;html=1;rounded=0;fontSize=12;strokeWidth=1.5;" parent="1" source="entity-user" target="process-detail" edge="1">
          <mxGeometry relative="1" as="geometry">
            <Array as="points">
              <mxPoint x="100" y="80" />
              <mxPoint x="660" y="80" />
            </Array>
          </mxGeometry>
        </mxCell>
        <mxCell id="flow-detail-user" value="房源详细信息" style="endArrow=classic;html=1;rounded=0;fontSize=12;strokeWidth=1.5;entryX=0.703;entryY=0.022;entryDx=0;entryDy=0;entryPerimeter=0;exitX=-0.005;exitY=0.582;exitDx=0;exitDy=0;exitPerimeter=0;" parent="1" source="process-detail" target="entity-user" edge="1">
          <mxGeometry x="-0.0765" relative="1" as="geometry">
            <Array as="points">
              <mxPoint x="520" y="200" />
              <mxPoint x="520" y="100" />
              <mxPoint x="320" y="100" />
              <mxPoint x="124" y="100" />
              <mxPoint x="125" y="120" />
            </Array>
            <mxPoint as="offset" />
          </mxGeometry>
        </mxCell>
        <mxCell id="flow-host-manage" value="创建/管理房源请求" style="endArrow=classic;html=1;rounded=0;fontSize=12;strokeWidth=1.5;exitX=0.995;exitY=0.402;exitDx=0;exitDy=0;exitPerimeter=0;entryX=-0.006;entryY=0.463;entryDx=0;entryDy=0;entryPerimeter=0;" parent="1" source="entity-host" target="process-host-manage" edge="1">
          <mxGeometry relative="1" as="geometry" />
        </mxCell>
        <mxCell id="flow-manage-host" value="房源管理结果" style="endArrow=classic;html=1;rounded=0;fontSize=12;strokeWidth=1.5;exitX=0.003;exitY=0.581;exitDx=0;exitDy=0;exitPerimeter=0;" parent="1" source="process-host-manage" edge="1">
          <mxGeometry relative="1" as="geometry">
            <Array as="points">
              <mxPoint x="250" y="490" />
            </Array>
            <mxPoint x="160" y="490" as="targetPoint" />
          </mxGeometry>
        </mxCell>
        <mxCell id="flow-host-image" value="图片上传数据" style="endArrow=classic;html=1;rounded=0;fontSize=12;strokeWidth=1.5;exitX=1.004;exitY=0.183;exitDx=0;exitDy=0;exitPerimeter=0;entryX=0.05;entryY=0.333;entryDx=0;entryDy=0;entryPerimeter=0;" parent="1" source="entity-host" target="process-image" edge="1">
          <mxGeometry x="-0.5895" relative="1" as="geometry">
            <Array as="points">
              <mxPoint x="250" y="460" />
              <mxPoint x="530" y="460" />
            </Array>
            <mxPoint as="offset" />
          </mxGeometry>
        </mxCell>
        <mxCell id="flow-image-host" value="图片处理结果/URL" style="endArrow=classic;html=1;rounded=0;fontSize=12;strokeWidth=1.5;entryX=0.995;entryY=0.823;entryDx=0;entryDy=0;entryPerimeter=0;exitX=-0.002;exitY=0.664;exitDx=0;exitDy=0;exitPerimeter=0;" parent="1" source="process-image" target="entity-host" edge="1">
          <mxGeometry x="-0.6832" relative="1" as="geometry">
            <Array as="points">
              <mxPoint x="500" y="500" />
              <mxPoint x="200" y="500" />
            </Array>
            <mxPoint as="offset" />
          </mxGeometry>
        </mxCell>
        <mxCell id="flow-admin-process" value="房源审核/配置请求" style="endArrow=classic;html=1;rounded=0;fontSize=12;strokeWidth=1.5;" parent="1" source="entity-admin" target="process-admin" edge="1">
          <mxGeometry relative="1" as="geometry" />
        </mxCell>
        <mxCell id="flow-process-admin" value="审核/配置结果" style="endArrow=classic;html=1;rounded=0;fontSize=12;strokeWidth=1.5;entryX=1;entryY=0.75;entryDx=0;entryDy=0;exitX=0.021;exitY=0.625;exitDx=0;exitDy=0;exitPerimeter=0;" parent="1" source="process-admin" target="entity-admin" edge="1">
          <mxGeometry x="0.0138" y="5" relative="1" as="geometry">
            <Array as="points">
              <mxPoint x="250" y="725" />
            </Array>
            <mxPoint as="offset" />
          </mxGeometry>
        </mxCell>
        <mxCell id="flow-order-avail" value="房源可用性查询" style="endArrow=classic;html=1;rounded=0;fontSize=12;strokeWidth=1.5;" parent="1" source="entity-order" target="process-availability" edge="1">
          <mxGeometry x="-0.5082" relative="1" as="geometry">
            <Array as="points">
              <mxPoint x="1000" y="340" />
            </Array>
            <mxPoint as="offset" />
          </mxGeometry>
        </mxCell>
        <mxCell id="flow-avail-order" value="可用性/价格信息" style="endArrow=classic;html=1;rounded=0;fontSize=12;strokeWidth=1.5;exitX=0.987;exitY=0.665;exitDx=0;exitDy=0;exitPerimeter=0;" parent="1" source="process-availability" target="entity-order" edge="1">
          <mxGeometry x="0.1636" relative="1" as="geometry">
            <Array as="points">
              <mxPoint x="750" y="360" />
              <mxPoint x="780" y="360" />
              <mxPoint x="850" y="360" />
              <mxPoint x="850" y="395" />
            </Array>
            <mxPoint as="offset" />
          </mxGeometry>
        </mxCell>
        <mxCell id="flow-ds-browse" value="读取房源列表/筛选" style="endArrow=classic;html=1;rounded=0;fontSize=12;strokeWidth=1.5;" parent="1" source="ds-homestays" target="process-browse" edge="1">
          <mxGeometry relative="1" as="geometry">
            <Array as="points">
              <mxPoint x="515" y="300" />
              <mxPoint x="400" y="300" />
            </Array>
          </mxGeometry>
        </mxCell>
        <mxCell id="flow-types-browse" value="读取类型数据" style="endArrow=classic;html=1;rounded=0;fontSize=12;strokeWidth=1.5;entryX=0.129;entryY=0.827;entryDx=0;entryDy=0;entryPerimeter=0;" parent="1" source="ds-types" target="process-browse" edge="1">
          <mxGeometry x="-0.3716" relative="1" as="geometry">
            <Array as="points">
              <mxPoint x="310" y="260" />
              <mxPoint x="310" y="230" />
            </Array>
            <mxPoint as="offset" />
          </mxGeometry>
        </mxCell>
        <mxCell id="flow-amenities-browse" value="读取设施数据" style="endArrow=classic;html=1;rounded=0;fontSize=12;strokeWidth=1.5;entryX=0.018;entryY=0.658;entryDx=0;entryDy=0;entryPerimeter=0;" parent="1" source="ds-amenities" target="process-browse" edge="1">
          <mxGeometry relative="1" as="geometry">
            <Array as="points">
              <mxPoint x="180" y="575" />
              <mxPoint x="180" y="210" />
              <mxPoint x="280" y="210" />
            </Array>
          </mxGeometry>
        </mxCell>
        <mxCell id="flow-ds-detail" value="读取房源详情" style="endArrow=classic;html=1;rounded=0;fontSize=12;strokeWidth=1.5;exitX=0.75;exitY=0;exitDx=0;exitDy=0;" parent="1" source="ds-homestays" target="process-detail" edge="1">
          <mxGeometry x="0.491" y="1" relative="1" as="geometry">
            <Array as="points">
              <mxPoint x="543" y="270" />
            </Array>
            <mxPoint as="offset" />
          </mxGeometry>
        </mxCell>
        <mxCell id="flow-images-detail" value="读取图片数据" style="endArrow=classic;html=1;rounded=0;fontSize=12;strokeWidth=1.5;" parent="1" source="ds-images" target="process-detail" edge="1">
          <mxGeometry relative="1" as="geometry">
            <Array as="points">
              <mxPoint x="820" y="400" />
              <mxPoint x="820" y="190" />
            </Array>
          </mxGeometry>
        </mxCell>
        <mxCell id="flow-manage-homestay" value="写入/更新房源" style="endArrow=classic;html=1;rounded=0;fontSize=12;strokeWidth=1.5;" parent="1" source="process-host-manage" target="ds-homestays" edge="1">
          <mxGeometry x="-0.0288" y="-1" relative="1" as="geometry">
            <mxPoint as="offset" />
          </mxGeometry>
        </mxCell>
        <mxCell id="flow-homestay-manage" value="读取房东房源" style="endArrow=classic;html=1;rounded=0;fontSize=12;strokeWidth=1.5;entryX=0.745;entryY=0.049;entryDx=0;entryDy=0;entryPerimeter=0;" parent="1" source="ds-homestays" target="process-host-manage" edge="1">
          <mxGeometry x="0.4845" y="-10" relative="1" as="geometry">
            <Array as="points">
              <mxPoint x="430" y="395" />
            </Array>
            <mxPoint as="offset" />
          </mxGeometry>
        </mxCell>
        <mxCell id="flow-manage-availability" value="设置价格/可用性" style="endArrow=classic;html=1;rounded=0;fontSize=12;strokeWidth=1.5;" parent="1" source="process-host-manage" target="process-availability" edge="1">
          <mxGeometry relative="1" as="geometry">
            <Array as="points">
              <mxPoint x="400" y="340" />
            </Array>
          </mxGeometry>
        </mxCell>
        <mxCell id="flow-image-images" value="保存图片信息" style="endArrow=classic;html=1;rounded=0;fontSize=12;strokeWidth=1.5;" parent="1" source="process-image" target="ds-images" edge="1">
          <mxGeometry x="-0.6001" y="10" relative="1" as="geometry">
            <Array as="points">
              <mxPoint x="660" y="575" />
            </Array>
            <mxPoint as="offset" />
          </mxGeometry>
        </mxCell>
        <mxCell id="flow-images-homestay" value="更新房源图片链接" style="endArrow=classic;html=1;rounded=0;fontSize=12;strokeWidth=1.5;entryX=0.75;entryY=1;entryDx=0;entryDy=0;exitX=0;exitY=0;exitDx=0;exitDy=0;" parent="1" source="process-image" target="ds-homestays" edge="1">
          <mxGeometry x="-0.6508" y="-18" relative="1" as="geometry">
            <Array as="points">
              <mxPoint x="543" y="438" />
            </Array>
            <mxPoint as="offset" />
          </mxGeometry>
        </mxCell>
        <mxCell id="flow-admin-homestay" value="审核/更新房源状态" style="endArrow=classic;html=1;rounded=0;fontSize=12;strokeWidth=1.5;" parent="1" target="ds-homestays" edge="1">
          <mxGeometry relative="1" as="geometry">
            <Array as="points">
              <mxPoint x="515" y="680" />
              <mxPoint x="515" y="630" />
            </Array>
            <mxPoint x="451" y="680" as="sourcePoint" />
          </mxGeometry>
        </mxCell>
        <mxCell id="flow-admin-types" value="管理房源类型" style="endArrow=classic;html=1;rounded=0;fontSize=12;strokeWidth=1.5;exitX=0;exitY=0;exitDx=0;exitDy=0;" parent="1" source="process-admin" target="ds-types" edge="1">
          <mxGeometry relative="1" as="geometry">
            <Array as="points">
              <mxPoint x="310" y="668" />
              <mxPoint x="310" y="330" />
            </Array>
          </mxGeometry>
        </mxCell>
        <mxCell id="flow-admin-amenities" value="管理设施数据" style="endArrow=classic;html=1;rounded=0;fontSize=12;strokeWidth=1.5;entryX=0.75;entryY=1;entryDx=0;entryDy=0;" parent="1" source="process-admin" target="ds-amenities" edge="1">
          <mxGeometry relative="1" as="geometry">
            <Array as="points">
              <mxPoint x="400" y="630" />
              <mxPoint x="355" y="630" />
            </Array>
          </mxGeometry>
        </mxCell>
        <mxCell id="flow-users-admin" value="验证管理员权限" style="endArrow=classic;html=1;rounded=0;fontSize=12;strokeWidth=1.5;" parent="1" source="ds-users" target="process-admin" edge="1">
          <mxGeometry relative="1" as="geometry">
            <Array as="points">
              <mxPoint x="500" y="705" />
            </Array>
          </mxGeometry>
        </mxCell>
        <mxCell id="flow-availability-homestay" value="更新可用性/价格" style="endArrow=classic;html=1;rounded=0;fontSize=12;strokeWidth=1.5;entryX=1;entryY=0.5;entryDx=0;entryDy=0;" parent="1" source="process-availability" target="ds-homestays" edge="1">
          <mxGeometry x="-1" y="-17" relative="1" as="geometry">
            <Array as="points">
              <mxPoint x="610" y="395" />
            </Array>
            <mxPoint x="3" y="-3" as="offset" />
          </mxGeometry>
        </mxCell>
        <mxCell id="diagram-title" value="图 4.2 民宿模块Level1数据流图" style="text;html=1;strokeColor=none;fillColor=none;align=center;verticalAlign=middle;whiteSpace=wrap;rounded=0;fontSize=16;fontStyle=1" parent="1" vertex="1">
          <mxGeometry x="400" y="770" width="350" height="30" as="geometry" />
        </mxCell>
      </root>
    </mxGraphModel>
  </diagram>
</mxfile>
